<svg width="32" height="32" xmlns="http://www.w3.org/2000/svg">
 <g>
  <title>Layer 1</title>
  <g id="svg_1">
   <g id="svg_2">
    <path id="path1" transform="translate(0,0) scale(1.5000234842300415) " fill="#8A8A8A" d="m15.95491,15.95492l5.31797,0l0,5.31797l-5.31797,0l0,-5.31797zm-7.97746,0l5.31797,0l0,5.31797l-5.31797,0l0,-5.31797zm-7.97746,0l5.31797,0l0,5.31797l-5.31797,0l0,-5.31797zm15.95491,-7.97746l5.31797,0l0,5.31797l-5.31797,0l0,-5.31797zm-7.97746,0l5.31797,0l0,5.31797l-5.31797,0l0,-5.31797zm-7.97746,0l5.31797,0l0,5.31797l-5.31797,0l0,-5.31797zm15.95491,-7.97746l5.31797,0l0,5.31797l-5.31797,0l0,-5.31797zm-7.97746,0l5.31797,0l0,5.31797l-5.31797,0l0,-5.31797zm-7.97746,0l5.31797,0l0,5.31797l-5.31797,0l0,-5.31797z"/>
   </g>
  </g>
 </g>
</svg>